<svg xmlns="http://www.w3.org/2000/svg" version="1.1" xmlns:xlink="http://www.w3.org/1999/xlink" xmlns:svgjs="http://svgjs.dev/svgjs" width="64px" height="64px"><svg width="64px" height="64px" viewBox="0 0 64 64" version="1.1" xmlns="http://www.w3.org/2000/svg" xmlns:xlink="http://www.w3.org/1999/xlink">
    <title>编组 5</title>
    <g id="SvgjsG1013" stroke="none" stroke-width="1" fill="none" fill-rule="evenodd">
        <g id="SvgjsG1012" transform="translate(-285.000000, -1496.000000)">
            <g id="SvgjsG1011" transform="translate(285.000000, 1496.000000)">
                <path d="M6.409713,0 L57.590287,4.5341707e-16 C59.8190838,-2.63448375e-16 60.6272994,0.232064028 61.4421143,0.667831759 C62.2569291,1.10359949 62.8964005,1.74307093 63.3321682,2.55788574 C63.767936,3.37270056 64,4.18091615 64,6.409713 L64,57.590287 C64,59.8190838 63.767936,60.6272994 63.3321682,61.4421143 C62.8964005,62.2569291 62.2569291,62.8964005 61.4421143,63.3321682 C60.6272994,63.767936 59.8190838,64 57.590287,64 L6.409713,64 C4.18091615,64 3.37270056,63.767936 2.55788574,63.3321682 C1.74307093,62.8964005 1.10359949,62.2569291 0.667831759,61.4421143 C0.232064028,60.6272994 0,59.8190838 0,57.590287 L0,6.409713 C0,4.18091615 0.232064028,3.37270056 0.667831759,2.55788574 C1.10359949,1.74307093 1.74307093,1.10359949 2.55788574,0.667831759 C3.37270056,0.232064028 4.18091615,0 6.409713,0 Z" id="SvgjsPath1010" fill-opacity="0.01" fill="#FFFFFF"></path>
                <g id="SvgjsG1009" transform="translate(10.666667, 10.666667)" fill="#ED0000" fill-rule="nonzero" stroke="#ED0000">
                    <path d="M0.428436722,4.9710398 C-0.142812241,4.43069179 -0.142812241,3.55461756 0.428436722,3.01427878 L3.1865804,0.405261007 C3.75782936,-0.135087002 4.6839392,-0.135087002 5.25518816,0.405261007 L18.2381812,12.6862028 C18.5124938,12.9456813 18.6666667,13.2975869 18.6666667,13.664528 L18.6666667,29.0020764 C18.6666667,29.3691098 18.5124938,29.7210153 18.2381812,29.9804938 L5.25518816,42.2613987 C4.6839392,42.801756 3.75782936,42.801756 3.1865804,42.2613987 L0.428436722,39.6524086 C-0.142812241,39.1120514 -0.142812241,38.2360233 0.428436722,37.6956661 L11.1264339,27.5760978 C11.5836866,27.1436645 11.8405439,26.5570937 11.8405439,25.9454329 L11.8405439,16.7211715 C11.8405439,16.109603 11.5836866,15.5230322 11.1264339,15.0905988 L0.428436722,4.9710398 Z" id="SvgjsPath1008"></path>
                    <path d="M42.2382299,4.9710398 C42.8094789,4.43069179 42.8094789,3.55461756 42.2382299,3.01427878 L39.4799888,0.405261007 C38.9088373,-0.135087002 37.98263,-0.135087002 37.411381,0.405261007 L24.428388,12.6862028 C24.1540753,12.9456813 24,13.2975869 24,13.664528 L24,29.0020764 C24,29.3691098 24.1540753,29.7210153 24.428388,29.9804938 L37.411381,42.2613987 C37.98263,42.801756 38.9088373,42.801756 39.4799888,42.2613987 L42.2382299,39.6524086 C42.8094789,39.1120514 42.8094789,38.2360233 42.2382299,37.6956661 L31.5401353,27.5760978 C31.0829801,27.1436645 30.8261228,26.5570937 30.8261228,25.9454329 L30.8261228,16.7211715 C30.8261228,16.109603 31.0829801,15.5230322 31.5401353,15.0905988 L42.2382299,4.9710398 Z" id="SvgjsPath1007"></path>
                </g>
            </g>
        </g>
    </g>
</svg><style>@media (prefers-color-scheme: light) { :root { filter: none; } }
@media (prefers-color-scheme: dark) { :root { filter: none; } }
</style></svg>